<?xml version="1.0" encoding="UTF-8" standalone="no"?>
<!-- Created with Inkscape (http://www.inkscape.org/) -->

<svg
   xmlns:dc="http://purl.org/dc/elements/1.1/"
   xmlns:cc="http://creativecommons.org/ns#"
   xmlns:rdf="http://www.w3.org/1999/02/22-rdf-syntax-ns#"
   xmlns:svg="http://www.w3.org/2000/svg"
   xmlns="http://www.w3.org/2000/svg"
   xmlns:sodipodi="http://sodipodi.sourceforge.net/DTD/sodipodi-0.dtd"
   xmlns:inkscape="http://www.inkscape.org/namespaces/inkscape"
   width="24"
   height="24"
   id="svg2"
   version="1.1"
   inkscape:version="0.48.4 r9939"
   sodipodi:docname="gears.svg">
  <defs
     id="defs4" />
  <sodipodi:namedview
     id="base"
     pagecolor="#ffffff"
     bordercolor="#666666"
     borderopacity="1.0"
     inkscape:pageopacity="0.0"
     inkscape:pageshadow="2"
     inkscape:zoom="15.839192"
     inkscape:cx="5.2114987"
     inkscape:cy="10.257045"
     inkscape:document-units="px"
     inkscape:current-layer="layer1"
     showgrid="false"
     fit-margin-top="0"
     fit-margin-left="0"
     fit-margin-right="0"
     fit-margin-bottom="0"
     inkscape:window-width="1366"
     inkscape:window-height="746"
     inkscape:window-x="1358"
     inkscape:window-y="-8"
     inkscape:window-maximized="1" />
  <metadata
     id="metadata7">
    <rdf:RDF>
      <cc:Work
         rdf:about="">
        <dc:format>image/svg+xml</dc:format>
        <dc:type
           rdf:resource="http://purl.org/dc/dcmitype/StillImage" />
        <dc:title></dc:title>
      </cc:Work>
    </rdf:RDF>
  </metadata>
  <g
     inkscape:label="Layer 1"
     inkscape:groupmode="layer"
     id="layer1"
     transform="translate(0,-1028.3622)">
    <path
       style="fill:#d5d5ff;fill-opacity:1;stroke:#ffffff;stroke-width:1.47447348;stroke-linejoin:miter;stroke-miterlimit:4;stroke-opacity:0;stroke-dasharray:none"
       d="m 11.09375,1.15625 c -0.03532,0 -0.0625,0.00325 -0.0625,0.03125 l 0,1.46875 0,0.65625 C 10.853591,3.9537 10.263356,4.4375 9.5625,4.4375 9.0582493,4.4375 8.6418874,4.21655 8.375,3.84375 8.364329,3.82875 8.322646,3.79625 8.3125,3.78125 l -0.15625,-0.375 -0.03125,0 -0.6875,-1.1875 C 7.419835,2.18875 7.374345,2.1695 7.34375,2.1875 L 5.75,3.0625 c -0.030595,0.018 -0.017664,0.06375 0,0.09375 l 0.6875,1.25 C 6.53492,4.53305 6.6263509,4.6636 6.6875,4.8125 6.74865,4.9615 6.78125,5.10895 6.78125,5.28125 6.78125,6.11415 6.085324,6.8125 5.25,6.8125 5.0795489,6.8125 4.9314675,6.811 4.78125,6.75 4.6310325,6.689 4.4702207,6.56355 4.34375,6.46875 L 3.15625,5.8125 c -0.030595,-0.018 -0.076085,-0.03 -0.09375,0 L 2.15625,7.375 c -0.017664,0.03 -0.030595,0.07675 0,0.09375 l 1.25,0.6875 0.3125,0.15625 0.34375,0.21875 0.03125,0 c 0.00632,0 -0.00622,0.02625 0,0.03125 0.3053054,0.267 0.5,0.6269 0.5,1.0625 0,0.7303 -0.5223452,1.33275 -1.21875,1.46875 l -0.09375,0 -0.4375,0 c -0.085653,-0.015 -0.16914,-0.0365 -0.25,-0.0625 -0.00149,0.014 0.00155,0.0495 0,0.0625 l -1.375,0 c -0.035329,0 -0.0625,0.0285 -0.0625,0.0625 l 0,1.8125 c 0,0.035 0.027173,0.0625 0.0625,0.0625 l 1.34375,0 0.71875,0 0.09375,0 c 0.6026643,0.2028 1,0.79835 1,1.46875 0,0.5054 -0.2383982,0.9226 -0.625,1.1875 -0.1288675,0.089 -0.2846078,0.17045 -0.4375,0.21875 0.00513,0.014 -0.00518,0.02025 0,0.03125 l -1.09375,0.65625 c -0.030595,0.018 -0.080164,0.0325 -0.0625,0.0625 L 3.0625,18.25 c 0.017664,0.03 0.063155,0.04925 0.09375,0.03125 l 1.1875,-0.6875 c 0.1273079,-0.097 0.2880509,-0.1891 0.4375,-0.25 l 0.03125,0 C 4.9506226,17.29175 5.0925094,17.25 5.25,17.25 c 0.835324,0 1.53125,0.7296 1.53125,1.5625 0,0.1515 -0.04038,0.27655 -0.09375,0.40625 -0.00514,0.014 0.00551,0.0505 0,0.0625 l -0.15625,0.25 c -0.02852,0.042 -0.063304,0.0828 -0.09375,0.125 L 5.75,20.84375 c -0.017664,0.03 0.03191,0.07675 0.0625,0.09375 L 7.375,21.875 c 0.030595,0.018 0.076085,-0.0345 0.09375,-0.0625 l 0.6875,-1.1875 0.03125,0 c 0.2573514,-0.466 0.7725687,-0.8125 1.34375,-0.8125 0.835323,0 1.5,0.69845 1.5,1.53125 0,0.015 4.49e-4,0.0475 0,0.0625 l 0,1.34375 c 0,0.035 0.02718,0.09375 0.0625,0.09375 l 1.8125,0 c 0.03532,0 0.0625,-0.05975 0.0625,-0.09375 l 0,-1.3125 0,-0.5 c 0.103699,-0.7271 0.70779,-1.28125 1.46875,-1.28125 0.492746,0 0.91533,0.22395 1.1875,0.59375 0.09072,0.1227 0.16655,0.2916 0.21875,0.4375 0.01744,-0.014 0.01389,-0.0545 0.03125,-0.0625 l 0.6875,1.1875 c 0.01766,0.03 0.06316,0.0805 0.09375,0.0625 L 18.25,20.96875 c 0.03059,-0.018 0.01766,-0.06375 0,-0.09375 L 17.5625,19.65625 C 17.375328,19.40535 17.25,19.0866 17.25,18.75 c 0,-0.8329 0.664676,-1.5 1.5,-1.5 0.340902,0 0.653309,0.123 0.90625,0.3125 l 1.25,0.6875 c 0.03059,0.018 0.04484,0.03 0.0625,0 L 21.875,16.65625 c 0.01766,-0.03 -6.8e-4,-0.0455 -0.03125,-0.0625 l -1.21875,-0.6875 0,-0.0625 C 20.111686,15.60265 19.78125,15.1033 19.78125,14.5 c 0,-0.8329 0.664677,-1.5 1.5,-1.5 l 0.125,0 1.375,0 c 0.03532,0 0.0625,-0.05975 0.0625,-0.09375 l 0,-1.78125 c 0,-0.035 -0.02718,-0.09375 -0.0625,-0.09375 l -1.34375,0 -0.34375,0 c -0.735487,-0.1091 -1.3125,-0.71005 -1.3125,-1.46875 0,-0.4584 0.236279,-0.88265 0.5625,-1.15625 0.108734,-0.091 0.212698,-0.15955 0.34375,-0.21875 L 21.84375,7.5 C 21.87434,7.482 21.89266,7.43625 21.875,7.40625 l -0.9375,-1.5625 c -0.01766,-0.03 -0.06316,-0.018 -0.09375,0 l -1.1875,0.6875 c -0.130718,0.1077 -0.280727,0.1917 -0.4375,0.25 -0.156774,0.059 -0.317274,0.09375 -0.5,0.09375 -0.835324,0 -1.53125,-0.6672 -1.53125,-1.5 0,-0.1393 0.02313,-0.2468 0.0625,-0.375 L 18.28125,3.1875 C 18.29891,3.1575 18.28057,3.142 18.25,3.125 L 16.65625,2.21875 C 16.62566,2.20075 16.58016,2.222 16.5625,2.25 L 15.875,3.40625 c -0.04504,0.1579 -0.09682,0.304 -0.1875,0.4375 L 15.625,3.9375 c -0.276143,0.3612 -0.699749,0.59375 -1.1875,0.59375 -0.732436,0 -1.332449,-0.53255 -1.46875,-1.21875 -0.0053,-0.027 0.0038,-0.0365 0,-0.0625 l 0,-0.59375 0,-1.46875 c 0,-0.035 -0.02718,-0.03125 -0.0625,-0.03125 l -1.8125,0 z M 12,7.875 c 2.289695,0 4.15625,1.8420456 4.15625,4.125 0,2.282954 -1.866555,4.125 -4.15625,4.125 C 9.7103052,16.125 7.84375,14.282954 7.84375,12 7.84375,9.7170456 9.7103052,7.875 12,7.875 z"
       transform="translate(0,1028.3622)"
       id="path3512"
       inkscape:connector-curvature="0" />
  </g>
</svg>
