<?xml version="1.0" encoding="UTF-8" standalone="no"?>
<!-- Created with Inkscape (http://www.inkscape.org/) -->

<svg
   xmlns:dc="http://purl.org/dc/elements/1.1/"
   xmlns:cc="http://creativecommons.org/ns#"
   xmlns:rdf="http://www.w3.org/1999/02/22-rdf-syntax-ns#"
   xmlns:svg="http://www.w3.org/2000/svg"
   xmlns="http://www.w3.org/2000/svg"
   version="1.1"
   width="24"
   height="24"
   id="svg2">
  <defs
     id="defs4" />
  <metadata
     id="metadata7">
    <rdf:RDF>
      <cc:Work
         rdf:about="">
        <dc:format>image/svg+xml</dc:format>
        <dc:type
           rdf:resource="http://purl.org/dc/dcmitype/StillImage" />
        <dc:title></dc:title>
      </cc:Work>
    </rdf:RDF>
  </metadata>
  <g
     transform="translate(-346.03518,-595.34876)"
     id="layer1">
    <path
       d="m 20.076782,13.614369 a 7.7971148,7.7971148 0 1 1 -15.5942299,0 7.7971148,7.7971148 0 1 1 15.5942299,0 z"
       transform="matrix(1.5390308,0,0,1.5390308,339.13639,586.39583)"
       id="path4437-0"
       style="fill:#ffffff;fill-opacity:1;stroke:none" />
    <path
       d="m 20.076782,13.614369 a 7.7971148,7.7971148 0 1 1 -15.5942299,0 7.7971148,7.7971148 0 1 1 15.5942299,0 z"
       transform="matrix(1.2825257,0,0,1.2825257,342.23325,589.81468)"
       id="path4437"
       style="fill:#00a9d4;fill-opacity:1;stroke:none" />
    <path
       d="m 356.8509,608.15424 c 1.04862,0.73119 2.62908,0.94976 3.21986,2.08344 0.27249,0.5229 0.36117,1.35835 -0.0631,1.76777 -0.31803,0.30687 -0.91985,-0.17462 -1.32583,0 -0.50597,0.21764 -1.00833,0.66386 -1.13642,1.19956 -0.18891,0.79007 1.07868,1.62023 0.69448,2.33597 -0.37467,0.698 -1.4974,0.85655 -2.27284,0.69448 -0.9496,-0.19847 -1.48193,-1.25257 -2.20971,-1.89403 -0.6818,-0.60094 -2.06808,-0.92333 -2.0203,-1.8309 0.0356,-0.67676 1.31472,-0.60585 1.64149,-1.19956 0.3051,-0.55433 0.0531,-1.26553 0.12627,-1.89404 0.074,-0.63576 -0.29877,-1.71479 0.31568,-1.89403 0.5436,-0.15858 0.57211,1.30966 1.13642,1.26269 0.54689,-0.0455 0.34399,-1.29056 0.88388,-1.38896 0.41408,-0.0755 0.6649,0.51687 1.01016,0.75761 z"
       id="path4445"
       style="fill:#ffffff;fill-opacity:1;stroke:none" />
    <path
       d="m 362.58062,601.99323 c 1.13582,0.0844 2.04245,1.06508 2.88358,1.833 0.93457,0.85325 1.70487,1.89938 2.31914,3.0058 0.42686,0.7688 0.73181,1.61336 0.92078,2.47218 l -1.53039,1.60513 c -0.60406,0.63348 -1.25486,-1.27085 -2.04524,-1.64705 -0.54346,-0.25869 -1.48806,0.15657 -1.7658,-0.37742 -0.24758,-0.476 0.37947,-1.00657 0.62824,-1.48194 0.24395,-0.46614 1.11504,-0.8843 0.84279,-1.33451 -0.21781,-0.36017 -0.86205,-0.0399 -1.25863,0.10117 -0.65899,0.23479 -1.09002,1.47639 -1.72844,1.19037 -0.51138,-0.2291 -0.27166,-1.11093 -0.21009,-1.6679 0.0817,-0.73954 0.89576,-1.36948 0.75589,-2.10026 -0.091,-0.47542 -1.06463,-0.61519 -0.96155,-1.08812 0.0893,-0.4097 0.73153,-0.54156 1.14971,-0.51046 z"
       id="path4455"
       style="fill:#ffffff;fill-opacity:1;stroke:none" />
    <path
       d="m 359.06323,599.93592 c 0.0394,0.81139 -1.59131,1.15685 -1.45209,1.95717 0.065,0.37378 0.6909,0.35145 0.94702,0.63135 0.35602,0.38907 0.71426,0.86336 0.75761,1.38896 0.0421,0.51074 -0.11523,1.11945 -0.50507,1.45209 -0.45535,0.38853 -1.17153,0.26286 -1.76777,0.31567 -1.00621,0.0891 -2.06059,-0.28242 -3.03046,0 -0.52689,0.15344 -0.89344,0.64804 -1.38896,0.88389 -0.54081,0.25741 -1.15733,0.81151 -1.70463,0.56821 -0.67168,-0.2986 -0.97682,-1.29114 -0.88388,-2.02031 0.0947,-0.74337 1.18671,-1.04618 1.38896,-1.76776 0.14301,-0.51024 0.10219,-1.13592 -0.18941,-1.57837 -0.25425,-0.38578 -1.1355,-0.23691 -1.19955,-0.69448 -0.1176,-0.84015 1.09442,-1.31486 1.76776,-1.8309 0.72522,-0.55579 1.54286,-1.64468 2.39912,-1.32582 0.39933,0.1487 0.17802,0.86499 0.44194,1.19955 0.42294,0.53617 1.02653,1.21729 1.70463,1.13642 0.7394,-0.0882 0.7706,-1.64521 1.51523,-1.64149 0.59597,0.003 1.17063,0.73054 1.19955,1.32582 z"
       id="path4457"
       style="fill:#ffffff;fill-opacity:1;stroke:none" />
  </g>
</svg>
