<?xml version="1.0" encoding="UTF-8" standalone="no"?>
<!-- Created with Inkscape (http://www.inkscape.org/) -->

<svg
   xmlns:dc="http://purl.org/dc/elements/1.1/"
   xmlns:cc="http://creativecommons.org/ns#"
   xmlns:rdf="http://www.w3.org/1999/02/22-rdf-syntax-ns#"
   xmlns:svg="http://www.w3.org/2000/svg"
   xmlns="http://www.w3.org/2000/svg"
   version="1.1"
   width="24"
   height="24"
   id="svg2">
  <defs
     id="defs4" />
  <metadata
     id="metadata7">
    <rdf:RDF>
      <cc:Work
         rdf:about="">
        <dc:format>image/svg+xml</dc:format>
        <dc:type
           rdf:resource="http://purl.org/dc/dcmitype/StillImage" />
        <dc:title></dc:title>
      </cc:Work>
    </rdf:RDF>
  </metadata>
  <g
     transform="translate(0,-1028.3622)"
     id="layer1">
    <g
       id="g4671">
      <path
         d="m 14.057328,1037.2035 c -0.311658,0 -0.636192,0.1413 -0.875,0.375 l -5.0312497,4.9062 -0.03125,-0.031 c -0.4816415,-0.4874 -1.2683585,-0.4874 -1.75,0 l -5.46875,5.5625 c -0.48164145,0.4873 -0.48164145,1.2626 0,1.75 l 1.65625,1.6875 c 0.4816415,0.4873 1.2371085,0.4873 1.71875,0 l 5.5,-5.5625 c 0.4540057,-0.4594 0.4644067,-1.1666 0.0625,-1.6563 l 5.0937497,-4.9687 c 0.477616,-0.4673 0.477616,-1.2203 0,-1.6875 -0.238808,-0.2337 -0.563342,-0.375 -0.875,-0.375 z"
         id="rect4650"
         style="fill:#ffffff;fill-opacity:1;stroke:none" />
      <path
         d="m 19.319167,9.3212204 a 5.2085991,5.2085991 0 1 1 -10.417198,0 5.2085991,5.2085991 0 1 1 10.417198,0 z"
         transform="matrix(1.2765728,0,0,1.2916603,-1.8442177,1024.2353)"
         id="path3880"
         style="fill:#29d4ff;fill-opacity:1;stroke:#ffffff;stroke-width:1.38930595;stroke-linejoin:miter;stroke-miterlimit:4;stroke-opacity:1;stroke-dasharray:none" />
    </g>
  </g>
</svg>
