<?xml version="1.0" encoding="UTF-8" standalone="no"?>
<!-- Created with Inkscape (http://www.inkscape.org/) -->

<svg
   xmlns:dc="http://purl.org/dc/elements/1.1/"
   xmlns:cc="http://creativecommons.org/ns#"
   xmlns:rdf="http://www.w3.org/1999/02/22-rdf-syntax-ns#"
   xmlns:svg="http://www.w3.org/2000/svg"
   xmlns="http://www.w3.org/2000/svg"
   version="1.1"
   width="24"
   height="24"
   id="svg2">
  <defs
     id="defs4" />
  <metadata
     id="metadata7">
    <rdf:RDF>
      <cc:Work
         rdf:about="">
        <dc:format>image/svg+xml</dc:format>
        <dc:type
           rdf:resource="http://purl.org/dc/dcmitype/StillImage" />
        <dc:title></dc:title>
      </cc:Work>
    </rdf:RDF>
  </metadata>
  <g
     transform="translate(-347.93695,-598.63446)"
     id="layer1">
    <path
       d="m 356.8509,608.15424 c 1.04862,0.73119 2.62908,0.94976 3.21986,2.08344 0.27249,0.5229 0.36117,1.35835 -0.0631,1.76777 -0.31803,0.30687 -0.91985,-0.17462 -1.32583,0 -0.50597,0.21764 -1.00833,0.66386 -1.13642,1.19956 -0.18891,0.79007 1.07868,1.62023 0.69448,2.33597 -0.37467,0.698 -1.4974,0.85655 -2.27284,0.69448 -0.9496,-0.19847 -1.48193,-1.25257 -2.20971,-1.89403 -0.6818,-0.60094 -2.06808,-0.92333 -2.0203,-1.8309 0.0356,-0.67676 1.31472,-0.60585 1.64149,-1.19956 0.3051,-0.55433 0.0531,-1.26553 0.12627,-1.89404 0.074,-0.63576 -0.29877,-1.71479 0.31568,-1.89403 0.5436,-0.15858 0.57211,1.30966 1.13642,1.26269 0.54689,-0.0455 0.34399,-1.29056 0.88388,-1.38896 0.41408,-0.0755 0.6649,0.51687 1.01016,0.75761 z"
       id="path4445"
       style="fill:#ffffff;fill-opacity:1;stroke:none" />
    <path
       d="m 362.58062,601.99323 c 1.13582,0.0844 2.04245,1.06508 2.88358,1.833 0.93457,0.85325 1.70487,1.89938 2.31914,3.0058 0.42686,0.7688 0.73181,1.61336 0.92078,2.47218 l -1.53039,1.60513 c -0.60406,0.63348 -1.25486,-1.27085 -2.04524,-1.64705 -0.54346,-0.25869 -1.48806,0.15657 -1.7658,-0.37742 -0.24758,-0.476 0.37947,-1.00657 0.62824,-1.48194 0.24395,-0.46614 1.11504,-0.8843 0.84279,-1.33451 -0.21781,-0.36017 -0.86205,-0.0399 -1.25863,0.10117 -0.65899,0.23479 -1.09002,1.47639 -1.72844,1.19037 -0.51138,-0.2291 -0.27166,-1.11093 -0.21009,-1.6679 0.0817,-0.73954 0.89576,-1.36948 0.75589,-2.10026 -0.091,-0.47542 -1.06463,-0.61519 -0.96155,-1.08812 0.0893,-0.4097 0.73153,-0.54156 1.14971,-0.51046 z"
       id="path4455"
       style="fill:#ffffff;fill-opacity:1;stroke:none" />
    <rect
       width="24"
       height="24"
       ry="0.055264127"
       x="347.93695"
       y="598.63446"
       id="rect4477"
       style="fill:#ffffff;fill-opacity:1;stroke:none" />
    <rect
       width="20"
       height="20"
       ry="0.046053439"
       x="349.93695"
       y="600.43805"
       id="rect4477-9"
       style="fill:#72b4c5;fill-opacity:1;stroke:none" />
    <path
       d="m 362.79631,614.62583 c 0.62863,-0.6707 1.80312,-0.64946 2.41071,-1.33928 0.52967,-0.60136 0.78762,-1.43772 0.89286,-2.23215 0.1338,-1.01006 0.39246,-2.34563 -0.35715,-3.03571 -0.63536,-0.58492 -1.72961,-0.007 -2.58928,-0.0893 -0.56987,-0.0546 -1.38049,0.20955 -1.69643,-0.26785 -0.3386,-0.51167 0.009,-1.35583 0.44643,-1.78572 0.56663,-0.55642 2.1025,0.22766 2.32143,-0.53571 0.10443,-0.36413 -0.45559,-0.6539 -0.80357,-0.80357 -1.01195,-0.43528 -2.38975,-0.70446 -3.30358,-0.0893 -0.63282,0.42601 -0.59415,1.40931 -0.80357,2.14286 -0.12497,0.43778 -0.053,0.93788 -0.26785,1.33928 -0.31777,0.59375 -0.84255,1.09677 -1.42857,1.42857 -0.85427,0.48368 -2.36617,-0.1358 -2.85715,0.71429 -0.32509,0.56287 0.0685,1.4231 0.53572,1.875 0.35281,0.34125 0.93795,0.37209 1.42857,0.35714 1.18545,-0.0361 2.2974,-1.52593 3.39285,-1.07143 0.83607,0.34689 1.38842,1.51619 1.25,2.41072 -0.10298,0.66551 -1.32945,0.76247 -1.42857,1.42857 -0.0745,0.50044 0.27202,1.09356 0.71429,1.33929 0.39111,0.2173 0.96938,0.16241 1.33928,-0.0893 0.51731,-0.35201 0.37568,-1.2399 0.80358,-1.69643 z"
       id="path4497"
       style="fill:#ffffff;fill-opacity:1;stroke:none" />
    <path
       d="m 370.15827,615.72249 0.17858,5.44642 -5.26786,0.26786 c 0,0 -0.28901,-1.39815 -0.0893,-2.05357 0.20475,-0.6719 1.06262,-1.01948 1.25,-1.69643 0.16748,-0.60508 -0.21072,-1.24799 -0.17857,-1.875 0.0311,-0.60623 -0.18313,-1.50897 0.35714,-1.78571 0.64013,-0.3279 1.53101,0.31878 1.96429,0.89285 0.36259,0.48043 -0.30382,1.59738 0.26785,1.78572 0.31981,0.10536 0.42786,-0.53726 0.71429,-0.71429 0.24018,-0.14844 0.80357,-0.26785 0.80357,-0.26785 z"
       id="path4499"
       style="fill:#ffffff;fill-opacity:1;stroke:none" />
    <path
       d="m 354.71185,614.11534 c -0.84085,0.13895 -1.78652,0.40796 -2.32143,1.07143 -0.51667,0.64084 -0.94697,1.69763 -0.53572,2.41072 0.59252,1.02739 2.20778,1.02454 3.39286,1.07142 0.79353,0.0314 2.2276,0.25287 2.32143,-0.53571 0.1258,-1.05734 -2.29735,-0.5228 -2.85714,-1.42857 -0.0939,-0.1519 -0.11983,-0.40331 0,-0.53572 0.4014,-0.44354 1.39611,0.27537 1.78571,-0.17857 0.36879,-0.42969 0.30051,-1.28569 -0.0893,-1.69643 -0.39141,-0.41243 -1.13543,-0.27127 -1.69642,-0.17857 z"
       id="path4501"
       style="fill:#ffffff;fill-opacity:1;stroke:none" />
    <path
       d="m 359.78767,601.00752 c -0.42541,0.75802 -1.32381,1.23181 -1.60714,2.05357 -0.26193,0.75969 0.52437,1.80182 0,2.41072 -0.39277,0.45608 -1.2247,0.4859 -1.78572,0.26785 -0.7495,-0.2913 -0.7229,-1.75393 -1.51785,-1.875 -0.53043,-0.0808 -1.15556,0.38876 -1.33929,0.89286 -0.25478,0.69907 0.78557,1.41634 0.625,2.14286 -0.13655,0.61783 -0.63763,1.26929 -1.25,1.42857 -0.42819,0.11138 -0.85176,-0.25366 -1.25,-0.44643 -0.50544,-0.24466 -1.14336,-0.40913 -1.42857,-0.89286 -1.13531,-1.92554 -0.35714,-6.69643 -0.35714,-6.69643 l 10.17857,0 c 0,0 -0.14341,0.49254 -0.26786,0.71429 z"
       id="path4503"
       style="fill:#ffffff;fill-opacity:1;stroke:none" />
  </g>
</svg>
